<?xml version="1.0" standalone="no"?><!DOCTYPE svg PUBLIC "-//W3C//DTD SVG 1.1//EN" "http://www.w3.org/Graphics/SVG/1.1/DTD/svg11.dtd"><svg width="46" height="50" viewBox="0 0 46 50" fill="none" version="1.1" xmlns:xlink="http://www.w3.org/1999/xlink" style="block-size:50px;fill:none;height:50px;inline-size:46px;min-block-size:auto;min-height:auto;min-inline-size:auto;min-width:auto;perspective-origin:23px 25px;text-align:center;transform-origin:23px 25px;width:46px;" xmlns="http://www.w3.org/2000/svg">
<path d="M43.75 6.25049H25V10.4172H43.75C44.3025 10.4172 44.8324 10.1977 45.2231 9.80696C45.6138 9.41626 45.8333 8.88636 45.8333 8.33382C45.8333 7.78129 45.6138 7.25138 45.2231 6.86068C44.8324 6.46998 44.3025 6.25049 43.75 6.25049Z" fill="#4A6CF7" style="block-size:auto;d:path(&quot;M 43.75 6.25049 H 25 V 10.4172 H 43.75 C 44.3025 10.4172 44.8324 10.1977 45.2231 9.80696 C 45.6138 9.41626 45.8333 8.88636 45.8333 8.33382 C 45.8333 7.78129 45.6138 7.25138 45.2231 6.86068 C 44.8324 6.46998 44.3025 6.25049 43.75 6.25049 Z&quot;);display:inline;fill:rgb(74, 108, 247);height:auto;inline-size:auto;overflow-x:visible;overflow-y:visible;perspective-origin:0px 0px;text-align:center;transform-origin:0px 0px;vertical-align:baseline;width:auto;"/>
<path d="M2.08333 10.4172H12.5V16.6672H20.8333V0.000488281H12.5V6.25049H2.08333C1.5308 6.25049 1.00089 6.46998 0.610193 6.86068C0.219492 7.25138 0 7.78129 0 8.33382C0 8.88636 0.219492 9.41626 0.610193 9.80696C1.00089 10.1977 1.5308 10.4172 2.08333 10.4172Z" fill="#4A6CF7" style="block-size:auto;d:path(&quot;M 2.08333 10.4172 H 12.5 V 16.6672 H 20.8333 V 0.000488281 H 12.5 V 6.25049 H 2.08333 C 1.5308 6.25049 1.00089 6.46998 0.610193 6.86068 C 0.219492 7.25138 0 7.78129 0 8.33382 C 0 8.88636 0.219492 9.41626 0.610193 9.80696 C 1.00089 10.1977 1.5308 10.4172 2.08333 10.4172 Z&quot;);display:inline;fill:rgb(74, 108, 247);height:auto;inline-size:auto;overflow-x:visible;overflow-y:visible;perspective-origin:0px 0px;text-align:center;transform-origin:0px 0px;vertical-align:baseline;width:auto;"/>
<path d="M43.75 39.5839H25V43.7505H43.75C44.3025 43.7505 44.8324 43.531 45.2231 43.1403C45.6138 42.7496 45.8333 42.2197 45.8333 41.6672C45.8333 41.1147 45.6138 40.5848 45.2231 40.1941C44.8324 39.8034 44.3025 39.5839 43.75 39.5839Z" fill="#4A6CF7" style="block-size:auto;d:path(&quot;M 43.75 39.5839 H 25 V 43.7505 H 43.75 C 44.3025 43.7505 44.8324 43.531 45.2231 43.1403 C 45.6138 42.7496 45.8333 42.2197 45.8333 41.6672 C 45.8333 41.1147 45.6138 40.5848 45.2231 40.1941 C 44.8324 39.8034 44.3025 39.5839 43.75 39.5839 Z&quot;);display:inline;fill:rgb(74, 108, 247);height:auto;inline-size:auto;overflow-x:visible;overflow-y:visible;perspective-origin:0px 0px;text-align:center;transform-origin:0px 0px;vertical-align:baseline;width:auto;"/>
<path d="M2.08333 43.7505H12.5V50.0005H20.8333V33.3339H12.5V39.5839H2.08333C1.5308 39.5839 1.00089 39.8034 0.610193 40.1941C0.219492 40.5848 0 41.1147 0 41.6672C0 42.2197 0.219492 42.7496 0.610193 43.1403C1.00089 43.531 1.5308 43.7505 2.08333 43.7505Z" fill="#4A6CF7" style="block-size:auto;d:path(&quot;M 2.08333 43.7505 H 12.5 V 50.0005 H 20.8333 V 33.3339 H 12.5 V 39.5839 H 2.08333 C 1.5308 39.5839 1.00089 39.8034 0.610193 40.1941 C 0.219492 40.5848 0 41.1147 0 41.6672 C 0 42.2197 0.219492 42.7496 0.610193 43.1403 C 1.00089 43.531 1.5308 43.7505 2.08333 43.7505 Z&quot;);display:inline;fill:rgb(74, 108, 247);height:auto;inline-size:auto;overflow-x:visible;overflow-y:visible;perspective-origin:0px 0px;text-align:center;transform-origin:0px 0px;vertical-align:baseline;width:auto;"/>
<path opacity="0.5" d="M43.75 22.9171H37.5V27.0838H43.75C44.3025 27.0838 44.8324 26.8643 45.2231 26.4736C45.6138 26.0829 45.8333 25.553 45.8333 25.0004C45.8333 24.4479 45.6138 23.918 45.2231 23.5273C44.8324 23.1366 44.3025 22.9171 43.75 22.9171ZM2.08333 27.0838H25V33.3338H33.3333V16.6671H25V22.9171H2.08333C1.5308 22.9171 1.00089 23.1366 0.610193 23.5273C0.219492 23.918 0 24.4479 0 25.0004C0 25.553 0.219492 26.0829 0.610193 26.4736C1.00089 26.8643 1.5308 27.0838 2.08333 27.0838Z" fill="#4A6CF7" style="block-size:auto;d:path(&quot;M 43.75 22.9171 H 37.5 V 27.0838 H 43.75 C 44.3025 27.0838 44.8324 26.8643 45.2231 26.4736 C 45.6138 26.0829 45.8333 25.553 45.8333 25.0004 C 45.8333 24.4479 45.6138 23.918 45.2231 23.5273 C 44.8324 23.1366 44.3025 22.9171 43.75 22.9171 Z M 2.08333 27.0838 H 25 V 33.3338 H 33.3333 V 16.6671 H 25 V 22.9171 H 2.08333 C 1.5308 22.9171 1.00089 23.1366 0.610193 23.5273 C 0.219492 23.918 0 24.4479 0 25.0004 C 0 25.553 0.219492 26.0829 0.610193 26.4736 C 1.00089 26.8643 1.5308 27.0838 2.08333 27.0838 Z&quot;);display:inline;fill:rgb(74, 108, 247);height:auto;inline-size:auto;opacity:0.5;overflow-x:visible;overflow-y:visible;perspective-origin:0px 0px;text-align:center;transform-origin:0px 0px;vertical-align:baseline;width:auto;"/>
</svg>