<?xml version="1.0" standalone="no"?><!DOCTYPE svg PUBLIC "-//W3C//DTD SVG 1.1//EN" "http://www.w3.org/Graphics/SVG/1.1/DTD/svg11.dtd"><svg width="9" height="18" viewBox="0 0 9 18" class="a1W" version="1.1" xmlns:xlink="http://www.w3.org/1999/xlink" style="block-size:18px;caret-color:rgb(149, 156, 177);color:rgb(149, 156, 177);column-rule-color:rgb(149, 156, 177);cursor:pointer;fill:rgb(149, 156, 177);height:18px;inline-size:9px;outline-color:rgb(149, 156, 177);perspective-origin:4.5px 9px;text-align:right;text-decoration:none solid rgb(149, 156, 177);text-decoration-color:rgb(149, 156, 177);text-emphasis-color:rgb(149, 156, 177);transform-origin:4.5px 9px;width:9px;-webkit-text-fill-color:rgb(149, 156, 177);-webkit-text-stroke-color:rgb(149, 156, 177);" xmlns="http://www.w3.org/2000/svg">
<path d="M8.13643 7.00049H6.78036H6.29605V6.43597V4.68597V4.12146H6.78036H7.79741C8.06378 4.12146 8.28172 3.89565 8.28172 3.55694V0.565004C8.28172 0.254521 8.088 0.000488281 7.79741 0.000488281H6.02968C4.11665 0.000488281 2.78479 1.58113 2.78479 3.92388V6.37952V6.94404H2.30048H0.65382C0.314802 6.94404 0 7.25452 0 7.70613V9.73839C0 10.1336 0.266371 10.5005 0.65382 10.5005H2.25205H2.73636V11.065V16.7384C2.73636 17.1336 3.00273 17.5005 3.39018 17.5005H5.66644C5.81174 17.5005 5.93281 17.4158 6.02968 17.3029C6.12654 17.19 6.19919 16.9924 6.19919 16.8231V11.0932V10.5287H6.70771H7.79741C8.11222 10.5287 8.35437 10.3029 8.4028 9.9642V9.93597V9.90775L8.74182 7.96017C8.76604 7.76258 8.74182 7.53678 8.59653 7.31097C8.54809 7.16984 8.33016 7.02871 8.13643 7.00049Z" style="block-size:auto;caret-color:rgb(149, 156, 177);color:rgb(149, 156, 177);column-rule-color:rgb(149, 156, 177);cursor:pointer;d:path(&quot;M 8.13643 7.00049 H 6.78036 H 6.29605 V 6.43597 V 4.68597 V 4.12146 H 6.78036 H 7.79741 C 8.06378 4.12146 8.28172 3.89565 8.28172 3.55694 V 0.565004 C 8.28172 0.254521 8.088 0.000488281 7.79741 0.000488281 H 6.02968 C 4.11665 0.000488281 2.78479 1.58113 2.78479 3.92388 V 6.37952 V 6.94404 H 2.30048 H 0.65382 C 0.314802 6.94404 0 7.25452 0 7.70613 V 9.73839 C 0 10.1336 0.266371 10.5005 0.65382 10.5005 H 2.25205 H 2.73636 V 11.065 V 16.7384 C 2.73636 17.1336 3.00273 17.5005 3.39018 17.5005 H 5.66644 C 5.81174 17.5005 5.93281 17.4158 6.02968 17.3029 C 6.12654 17.19 6.19919 16.9924 6.19919 16.8231 V 11.0932 V 10.5287 H 6.70771 H 7.79741 C 8.11222 10.5287 8.35437 10.3029 8.4028 9.9642 V 9.93597 V 9.90775 L 8.74182 7.96017 C 8.76604 7.76258 8.74182 7.53678 8.59653 7.31097 C 8.54809 7.16984 8.33016 7.02871 8.13643 7.00049 Z&quot;);display:inline;fill:rgb(149, 156, 177);height:auto;inline-size:auto;outline-color:rgb(149, 156, 177);overflow-x:visible;overflow-y:visible;perspective-origin:0px 0px;text-align:right;text-decoration:none solid rgb(149, 156, 177);text-decoration-color:rgb(149, 156, 177);text-emphasis-color:rgb(149, 156, 177);transform-origin:0px 0px;vertical-align:baseline;width:auto;-webkit-text-fill-color:rgb(149, 156, 177);-webkit-text-stroke-color:rgb(149, 156, 177);"/>
</svg>