<?xml version="1.0" standalone="no"?><!DOCTYPE svg PUBLIC "-//W3C//DTD SVG 1.1//EN" "http://www.w3.org/Graphics/SVG/1.1/DTD/svg11.dtd"><svg width="17" height="16" viewBox="0 0 17 16" class="a1W" version="1.1" xmlns:xlink="http://www.w3.org/1999/xlink" style="block-size:16px;caret-color:rgb(149, 156, 177);color:rgb(149, 156, 177);column-rule-color:rgb(149, 156, 177);cursor:pointer;fill:rgb(149, 156, 177);height:16px;inline-size:17px;outline-color:rgb(149, 156, 177);perspective-origin:8.5px 8px;text-align:right;text-decoration:none solid rgb(149, 156, 177);text-decoration-color:rgb(149, 156, 177);text-emphasis-color:rgb(149, 156, 177);transform-origin:8.5px 8px;width:17px;-webkit-text-fill-color:rgb(149, 156, 177);-webkit-text-stroke-color:rgb(149, 156, 177);" xmlns="http://www.w3.org/2000/svg">
<path d="M15.2196 0.000488281H1.99991C1.37516 0.000488281 0.875366 0.49798 0.875366 1.11984V14.3034C0.875366 14.9004 1.37516 15.4227 1.99991 15.4227H15.1696C15.7943 15.4227 16.2941 14.9252 16.2941 14.3034V1.09497C16.3441 0.49798 15.8443 0.000488281 15.2196 0.000488281ZM5.44852 13.1094H3.17444V5.77139H5.44852V13.1094ZM4.29899 4.75153C3.54929 4.75153 2.97452 4.15454 2.97452 3.43318C2.97452 2.71182 3.57428 2.11483 4.29899 2.11483C5.02369 2.11483 5.62345 2.71182 5.62345 3.43318C5.62345 4.15454 5.07367 4.75153 4.29899 4.75153ZM14.07 13.1094H11.796V9.55232C11.796 8.70659 11.771 7.58723 10.5964 7.58723C9.39693 7.58723 9.222 8.53246 9.222 9.4777V13.1094H6.94792V5.77139H9.17202V6.79124H9.19701C9.52188 6.19425 10.2466 5.59727 11.3711 5.59727C13.6952 5.59727 14.12 7.08974 14.12 9.12945V13.1094H14.07Z" style="block-size:auto;caret-color:rgb(149, 156, 177);color:rgb(149, 156, 177);column-rule-color:rgb(149, 156, 177);cursor:pointer;d:path(&quot;M 15.2196 0.000488281 H 1.99991 C 1.37516 0.000488281 0.875366 0.49798 0.875366 1.11984 V 14.3034 C 0.875366 14.9004 1.37516 15.4227 1.99991 15.4227 H 15.1696 C 15.7943 15.4227 16.2941 14.9252 16.2941 14.3034 V 1.09497 C 16.3441 0.49798 15.8443 0.000488281 15.2196 0.000488281 Z M 5.44852 13.1094 H 3.17444 V 5.77139 H 5.44852 V 13.1094 Z M 4.29899 4.75153 C 3.54929 4.75153 2.97452 4.15454 2.97452 3.43318 C 2.97452 2.71182 3.57428 2.11483 4.29899 2.11483 C 5.02369 2.11483 5.62345 2.71182 5.62345 3.43318 C 5.62345 4.15454 5.07367 4.75153 4.29899 4.75153 Z M 14.07 13.1094 H 11.796 V 9.55232 C 11.796 8.70659 11.771 7.58723 10.5964 7.58723 C 9.39693 7.58723 9.222 8.53246 9.222 9.4777 V 13.1094 H 6.94792 V 5.77139 H 9.17202 V 6.79124 H 9.19701 C 9.52188 6.19425 10.2466 5.59727 11.3711 5.59727 C 13.6952 5.59727 14.12 7.08974 14.12 9.12945 V 13.1094 H 14.07 Z&quot;);display:inline;fill:rgb(149, 156, 177);height:auto;inline-size:auto;outline-color:rgb(149, 156, 177);overflow-x:visible;overflow-y:visible;perspective-origin:0px 0px;text-align:right;text-decoration:none solid rgb(149, 156, 177);text-decoration-color:rgb(149, 156, 177);text-emphasis-color:rgb(149, 156, 177);transform-origin:0px 0px;vertical-align:baseline;width:auto;-webkit-text-fill-color:rgb(149, 156, 177);-webkit-text-stroke-color:rgb(149, 156, 177);"/>
</svg>