<?xml version="1.0" standalone="no"?><!DOCTYPE svg PUBLIC "-//W3C//DTD SVG 1.1//EN" "http://www.w3.org/Graphics/SVG/1.1/DTD/svg11.dtd"><svg width="19" height="14" viewBox="0 0 19 14" class="a1W" version="1.1" xmlns:xlink="http://www.w3.org/1999/xlink" style="block-size:14px;caret-color:rgb(149, 156, 177);color:rgb(149, 156, 177);column-rule-color:rgb(149, 156, 177);cursor:pointer;fill:rgb(149, 156, 177);height:14px;inline-size:19px;outline-color:rgb(149, 156, 177);perspective-origin:9.5px 7px;text-align:right;text-decoration:none solid rgb(149, 156, 177);text-decoration-color:rgb(149, 156, 177);text-emphasis-color:rgb(149, 156, 177);transform-origin:9.5px 7px;width:19px;-webkit-text-fill-color:rgb(149, 156, 177);-webkit-text-stroke-color:rgb(149, 156, 177);" xmlns="http://www.w3.org/2000/svg">
<path d="M16.3024 2.26076L17.375 1.02789C17.6855 0.693982 17.7702 0.437132 17.7984 0.308707C16.9516 0.771036 16.1613 0.925146 15.6532 0.925146H15.4556L15.3427 0.822406C14.6653 0.283022 13.8185 0.000488281 12.9153 0.000488281C10.9395 0.000488281 9.3871 1.49021 9.3871 3.2111C9.3871 3.31384 9.3871 3.46795 9.41532 3.57069L9.5 4.08439L8.90726 4.05871C5.29435 3.95597 2.33065 1.13063 1.85081 0.642612C1.06048 1.92686 1.5121 3.15973 1.99194 3.93028L2.95161 5.36864L1.42742 4.59809C1.45565 5.67686 1.90726 6.52446 2.78226 7.1409L3.54435 7.6546L2.78226 7.93713C3.2621 9.24706 4.33468 9.78645 5.125 9.99193L6.16935 10.2488L5.18145 10.8652C3.60081 11.8926 1.625 11.8156 0.75 11.7385C2.52823 12.8686 4.64516 13.1255 6.1129 13.1255C7.21371 13.1255 8.03226 13.0227 8.22984 12.9457C16.1331 11.2505 16.5 4.82926 16.5 3.54501V3.36521L16.6694 3.26248C17.629 2.44056 18.0242 2.00391 18.25 1.74706C18.1653 1.77275 18.0524 1.82412 17.9395 1.8498L16.3024 2.26076Z" style="block-size:auto;caret-color:rgb(149, 156, 177);color:rgb(149, 156, 177);column-rule-color:rgb(149, 156, 177);cursor:pointer;d:path(&quot;M 16.3024 2.26076 L 17.375 1.02789 C 17.6855 0.693982 17.7702 0.437132 17.7984 0.308707 C 16.9516 0.771036 16.1613 0.925146 15.6532 0.925146 H 15.4556 L 15.3427 0.822406 C 14.6653 0.283022 13.8185 0.000488281 12.9153 0.000488281 C 10.9395 0.000488281 9.3871 1.49021 9.3871 3.2111 C 9.3871 3.31384 9.3871 3.46795 9.41532 3.57069 L 9.5 4.08439 L 8.90726 4.05871 C 5.29435 3.95597 2.33065 1.13063 1.85081 0.642612 C 1.06048 1.92686 1.5121 3.15973 1.99194 3.93028 L 2.95161 5.36864 L 1.42742 4.59809 C 1.45565 5.67686 1.90726 6.52446 2.78226 7.1409 L 3.54435 7.6546 L 2.78226 7.93713 C 3.2621 9.24706 4.33468 9.78645 5.125 9.99193 L 6.16935 10.2488 L 5.18145 10.8652 C 3.60081 11.8926 1.625 11.8156 0.75 11.7385 C 2.52823 12.8686 4.64516 13.1255 6.1129 13.1255 C 7.21371 13.1255 8.03226 13.0227 8.22984 12.9457 C 16.1331 11.2505 16.5 4.82926 16.5 3.54501 V 3.36521 L 16.6694 3.26248 C 17.629 2.44056 18.0242 2.00391 18.25 1.74706 C 18.1653 1.77275 18.0524 1.82412 17.9395 1.8498 L 16.3024 2.26076 Z&quot;);display:inline;fill:rgb(149, 156, 177);height:auto;inline-size:auto;outline-color:rgb(149, 156, 177);overflow-x:visible;overflow-y:visible;perspective-origin:0px 0px;text-align:right;text-decoration:none solid rgb(149, 156, 177);text-decoration-color:rgb(149, 156, 177);text-emphasis-color:rgb(149, 156, 177);transform-origin:0px 0px;vertical-align:baseline;width:auto;-webkit-text-fill-color:rgb(149, 156, 177);-webkit-text-stroke-color:rgb(149, 156, 177);"/>
</svg>