<?xml version="1.0" standalone="no"?><!DOCTYPE svg PUBLIC "-//W3C//DTD SVG 1.1//EN" "http://www.w3.org/Graphics/SVG/1.1/DTD/svg11.dtd"><svg width="18" height="14" viewBox="0 0 18 14" class="a1W" version="1.1" xmlns:xlink="http://www.w3.org/1999/xlink" style="block-size:14px;caret-color:rgb(149, 156, 177);color:rgb(149, 156, 177);column-rule-color:rgb(149, 156, 177);cursor:pointer;fill:rgb(149, 156, 177);height:14px;inline-size:18px;outline-color:rgb(149, 156, 177);perspective-origin:9px 7px;text-align:right;text-decoration:none solid rgb(149, 156, 177);text-decoration-color:rgb(149, 156, 177);text-emphasis-color:rgb(149, 156, 177);transform-origin:9px 7px;width:18px;-webkit-text-fill-color:rgb(149, 156, 177);-webkit-text-stroke-color:rgb(149, 156, 177);" xmlns="http://www.w3.org/2000/svg">
<path d="M17.5058 2.07168C17.3068 1.24929 16.7099 0.609661 15.9423 0.396451C14.5778 0.000488354 9.0627 0.000488281 9.0627 0.000488281C9.0627 0.000488281 3.54766 0.000488354 2.18311 0.396451C1.41555 0.609661 0.818561 1.24929 0.619565 2.07168C0.25 3.56415 0.25 6.61002 0.25 6.61002C0.25 6.61002 0.25 9.68634 0.619565 11.1484C0.818561 11.9707 1.41555 12.6104 2.18311 12.8236C3.54766 13.2195 9.0627 13.2195 9.0627 13.2195C9.0627 13.2195 14.5778 13.2195 15.9423 12.8236C16.7099 12.6104 17.3068 11.9707 17.5058 11.1484C17.8754 9.68634 17.8754 6.61002 17.8754 6.61002C17.8754 6.61002 17.8754 3.56415 17.5058 2.07168ZM7.30016 9.44267V3.77736L11.8771 6.61002L7.30016 9.44267Z" style="block-size:auto;caret-color:rgb(149, 156, 177);color:rgb(149, 156, 177);column-rule-color:rgb(149, 156, 177);cursor:pointer;d:path(&quot;M 17.5058 2.07168 C 17.3068 1.24929 16.7099 0.609661 15.9423 0.396451 C 14.5778 0.000488354 9.0627 0.000488281 9.0627 0.000488281 C 9.0627 0.000488281 3.54766 0.000488354 2.18311 0.396451 C 1.41555 0.609661 0.818561 1.24929 0.619565 2.07168 C 0.25 3.56415 0.25 6.61002 0.25 6.61002 C 0.25 6.61002 0.25 9.68634 0.619565 11.1484 C 0.818561 11.9707 1.41555 12.6104 2.18311 12.8236 C 3.54766 13.2195 9.0627 13.2195 9.0627 13.2195 C 9.0627 13.2195 14.5778 13.2195 15.9423 12.8236 C 16.7099 12.6104 17.3068 11.9707 17.5058 11.1484 C 17.8754 9.68634 17.8754 6.61002 17.8754 6.61002 C 17.8754 6.61002 17.8754 3.56415 17.5058 2.07168 Z M 7.30016 9.44267 V 3.77736 L 11.8771 6.61002 L 7.30016 9.44267 Z&quot;);display:inline;fill:rgb(149, 156, 177);height:auto;inline-size:auto;outline-color:rgb(149, 156, 177);overflow-x:visible;overflow-y:visible;perspective-origin:0px 0px;text-align:right;text-decoration:none solid rgb(149, 156, 177);text-decoration-color:rgb(149, 156, 177);text-emphasis-color:rgb(149, 156, 177);transform-origin:0px 0px;vertical-align:baseline;width:auto;-webkit-text-fill-color:rgb(149, 156, 177);-webkit-text-stroke-color:rgb(149, 156, 177);"/>
</svg>